# xmcd CD database file
#
# Track frame offsets:
#	150
#	26529
#	44589
#	71223
#	88760
#	128427
#	150095
#
# Disc length: 2298 seconds
#
# Revision: 0
# Processed by: cddbd v1.5.2PL0 Copyright (c) Steve Scherf et al.
# Submitted via: CDex 1.70beta2
#
DISCID=5008f807
DTITLE=Shake your hips - Blues Twins - Live
DYEAR=2009
DGENRE=Blues
TTITLE0=Slow Down
TTITLE1=Can't Keep A Good Man Down
TTITLE2=You Don't Have To Go
TTITLE3=When The Bobcat Play
TTITLE4=The Same Thing
TTITLE5=Caroline's Smile
TTITLE6=Lucky In Love
EXTD=YEAR: 2009
EXTT0=
EXTT1=
EXTT2=
EXTT3=
EXTT4=
EXTT5=
EXTT6=
PLAYORDER=
